<svg width="200" height="60" viewBox="0 0 200 60" fill="none" xmlns="http://www.w3.org/2000/svg">
  <!-- Background circle -->
  <circle cx="30" cy="30" r="25" fill="#2563eb" stroke="#1d4ed8" stroke-width="2"/>
  
  <!-- Solution icon - lightbulb with gear -->
  <g transform="translate(20, 15)">
    <!-- Lightbulb -->
    <path d="M10 5 C10 2.5, 12.5 0, 15 0 C17.5 0, 20 2.5, 20 5 C20 7.5, 18.5 9, 17 10 L17 15 L13 15 L13 10 C11.5 9, 10 7.5, 10 5 Z" fill="#ffffff"/>
    <!-- Gear -->
    <circle cx="15" cy="22" r="6" fill="none" stroke="#ffffff" stroke-width="1.5"/>
    <circle cx="15" cy="22" r="3" fill="#ffffff"/>
    <!-- Gear teeth -->
    <rect x="14" y="16" width="2" height="2" fill="#ffffff"/>
    <rect x="14" y="26" width="2" height="2" fill="#ffffff"/>
    <rect x="9" y="21" width="2" height="2" fill="#ffffff"/>
    <rect x="19" y="21" width="2" height="2" fill="#ffffff"/>
  </g>
  
  <!-- Company name -->
  <text x="65" y="25" font-family="Inter, system-ui, sans-serif" font-size="18" font-weight="700" fill="#1f2937">
    The Solution
  </text>
  <text x="65" y="45" font-family="Inter, system-ui, sans-serif" font-size="18" font-weight="700" fill="#2563eb">
    Desk
  </text>
</svg>
